
        <svg xmlns="http://www.w3.org/2000/svg" xmlns:xlink="http://www.w3.org/1999/xlink" version="1.1" width="3185.7585139318885" 
        height="891.6408668730651" viewBox="0 0 3185.7585139318885 891.6408668730651">
			<rect fill="#f6f6f6" width="3185.7585139318885" height="891.6408668730651"/>
			<g transform="scale(9.287925696594428) translate(10, 10)">
				<defs id="SvgjsDefs2241"></defs><g id="SvgjsG2242" featureKey="symbolContainer" transform="matrix(1,0,0,1,0,0)" fill="#111111">    <path xmlns="http://www.w3.org/2000/svg" fill-rule="nonzero" d="             M0,0             H103             V76             H0,0             z             M4,4             v68             h95             v-68             z     "></path></g><g id="SvgjsG2243" featureKey="symbolFeature-0" transform="matrix(2.384114977503667,0,0,2.384114977503667,-67.20455747251134,-81.0642019226147)" fill="#111111"><g xmlns="http://www.w3.org/2000/svg"><polygon points="37.876,59.597 35.319,57.04 42.625,49.734 35.319,42.431 37.876,39.874 47.738,49.734  "></polygon></g><g xmlns="http://www.w3.org/2000/svg"><rect x="48.182" y="56.51" width="16.498" height="3.617"></rect></g></g><g id="SvgjsG2244" featureKey="nameFeature-0" transform="matrix(1.7391304347826086,0,0,1.7391304347826086,120.21739126288372,-4.23478134818699)" fill="#111111"><path d="M1.6 28.32 c0 6.28 5.32 11.68 12.08 11.68 c2.04 0 3.96 -0.44 5.72 -1.32 l0 1.32 l6.36 0 l-0.04 -23.12 l-6.48 0 l0 1.04 c-1.72 -0.84 -3.6 -1.24 -5.56 -1.24 c-6.76 0 -12.08 5.4 -12.08 11.64 z M17.68 32.28 c-1.08 1.04 -2.4 1.64 -4 1.64 c-3.16 0 -5.6 -2.64 -5.6 -5.6 c0 -2.92 2.44 -5.56 5.6 -5.56 c1.6 0 2.92 0.56 4 1.6 c0.68 0.68 1.56 2.12 1.56 2.96 l0 2.04 c0 0.84 -0.88 2.2 -1.56 2.92 z M28.96 16.88 l9.4 23.08 l6.24 0 l9.44 -23.08 l-7.16 0 l-5.4 14.32 l-5.36 -14.32 l-7.16 0 z M57.24 12.399999999999999 c0 1.88 1.52 3.56 3.64 3.56 c2.08 0 3.68 -1.68 3.68 -3.56 c0 -1.84 -1.6 -3.64 -3.68 -3.64 c-2.12 0 -3.64 1.8 -3.64 3.64 z M57.64 16.84 l0 23.16 l6.48 0 l0 -23.16 l-6.48 0 z M67.75999999999999 16.88 l9.4 23.08 l6.24 0 l9.44 -23.08 l-7.16 0 l-5.4 14.32 l-5.36 -14.32 l-7.16 0 z M92.72 28.36 c0 -6.16 5.24 -11.52 11.96 -11.52 c6.68 0 11.92 5.36 11.92 11.52 c0 0.84 -0.08 1.64 -0.24 2.4 l-16.68 0.04 c0.88 1.8 2.72 3.08 5 3.08 c1.56 0 2.96 -0.64 3.92 -1.6 l7.28 0 c-1.64 4.36 -6 7.64 -11.2 7.64 c-6.72 0 -11.96 -5.2 -11.96 -11.4 l0 -0.16 z M99.88000000000001 25.6 l-0.2 0.56 l10.12 0 l-0.32 -0.56 c-0.96 -1.6 -2.68 -2.72 -4.8 -2.72 s-3.88 1.12 -4.8 2.72 z"></path></g>
			</g>
		</svg>
	